<svg width="113" height="107" viewBox="0 0 113 107" fill="none" xmlns="http://www.w3.org/2000/svg">
<g filter="url(#filter0_d_1_12)">
<rect width="113" height="106" rx="30" fill="#FAFF00"/>
</g>
<path d="M84.5117 39.1484C83.5625 38.832 82.6133 38.5332 81.6641 38.252C81.8223 37.6016 81.9629 36.9512 82.1035 36.3008C84.2656 25.8242 82.8418 17.4043 78.043 14.627C73.4199 11.9727 65.8789 14.7324 58.25 21.377C57.4941 22.0273 56.7559 22.7129 56.0527 23.3984C55.5781 22.9414 55.0859 22.4844 54.5938 22.0449C46.5957 14.9434 38.5801 11.9551 33.7813 14.75C29.1758 17.4219 27.8047 25.3496 29.7383 35.2637C29.9316 36.248 30.1426 37.2148 30.3887 38.1992C29.2637 38.5156 28.1562 38.8672 27.1191 39.2363C17.7324 42.4883 11 47.6211 11 52.9297C11 58.4141 18.1719 63.916 27.9277 67.2559C28.7188 67.5195 29.5098 67.7832 30.3184 68.0117C30.0547 69.0664 29.8262 70.1035 29.6152 71.1758C27.7695 80.9316 29.2109 88.666 33.8164 91.3203C38.5625 94.0625 46.543 91.25 54.3125 84.4473C54.9277 83.9023 55.543 83.3398 56.1582 82.7422C56.9316 83.498 57.7402 84.2187 58.5488 84.9219C66.0723 91.3906 73.5078 94.0098 78.0957 91.3555C82.8418 88.6133 84.3887 80.2988 82.3848 70.1738C82.2266 69.4004 82.0508 68.6094 81.8574 67.8008C82.4199 67.6426 82.9648 67.4668 83.5098 67.291C93.6523 63.9336 101 58.502 101 52.9297C101 47.6035 94.0742 42.4355 84.5117 39.1484V39.1484ZM60.7285 24.2246C67.2676 18.5293 73.3672 16.2969 76.1445 17.8965C79.1152 19.6016 80.2578 26.4922 78.3945 35.5449C78.2715 36.1426 78.1484 36.7227 77.9902 37.3027C74.0879 36.4238 70.1328 35.791 66.1602 35.4395C63.875 32.1699 61.3789 29.041 58.6719 26.1055C59.3574 25.4551 60.0254 24.8398 60.7285 24.2246V24.2246ZM40.3906 62.0527C41.2871 63.582 42.2012 65.1113 43.168 66.6055C40.4258 66.3066 37.7012 65.8672 35.0117 65.2871C35.7852 62.7559 36.752 60.1367 37.877 57.4648C38.6855 59.0117 39.5117 60.541 40.3906 62.0527V62.0527ZM35.0645 40.9062C37.5957 40.3437 40.2852 39.8867 43.0801 39.5352C42.1484 40.9941 41.2344 42.4883 40.373 44C39.5117 45.4941 38.668 47.0234 37.877 48.5703C36.7695 45.9512 35.8379 43.3848 35.0645 40.9062ZM39.8809 53.0176C41.041 50.5918 42.3066 48.2187 43.6426 45.8809C44.9785 43.543 46.4199 41.2754 47.9316 39.043C50.5684 38.8496 53.2578 38.7441 56 38.7441C58.7422 38.7441 61.4492 38.8496 64.0684 39.043C65.5625 41.2578 66.9863 43.5254 68.3398 45.8457C69.6934 48.166 70.959 50.5391 72.1543 52.9473C70.9766 55.373 69.7109 57.7637 68.3574 60.1191C67.0215 62.457 65.5977 64.7246 64.1035 66.9746C61.4844 67.168 58.7598 67.2559 56 67.2559C53.2402 67.2559 50.5684 67.168 47.9844 67.0098C46.4551 64.7773 45.0137 62.4922 43.6602 60.1543C42.3066 57.8164 41.0586 55.4434 39.8809 53.0176ZM71.627 62.0176C72.5234 60.4707 73.3672 58.9062 74.1934 57.3242C75.3184 59.873 76.3027 62.457 77.1641 65.1113C74.4395 65.7266 71.6797 66.2012 68.9023 66.5176C69.8516 65.041 70.748 63.5293 71.627 62.0176ZM74.1582 48.5703C73.332 47.0234 72.4883 45.4766 71.6094 43.9648C70.748 42.4707 69.8516 40.9941 68.9199 39.5352C71.75 39.8867 74.457 40.3613 76.9883 40.9414C76.1797 43.543 75.2305 46.0742 74.1582 48.5703V48.5703ZM56.0352 28.7949C57.8809 30.7988 59.6211 32.9082 61.2383 35.0879C57.7578 34.9297 54.2598 34.9297 50.7793 35.0879C52.502 32.8203 54.2773 30.7109 56.0352 28.7949ZM35.6445 18.0195C38.5977 16.2969 45.1543 18.7578 52.0625 24.875C52.502 25.2617 52.9414 25.6836 53.3984 26.1055C50.6738 29.041 48.1602 32.1699 45.8574 35.4395C41.8848 35.791 37.9473 36.4062 34.0449 37.2676C33.8164 36.3711 33.623 35.457 33.4297 34.543C31.7773 26.0352 32.8672 19.6191 35.6445 18.0195V18.0195ZM31.3379 64.3555C30.5996 64.1445 29.8789 63.916 29.1582 63.6699C25.4141 62.4922 21.1602 60.6289 18.084 58.1855C16.3086 56.9551 15.1133 55.0566 14.7793 52.9297C14.7793 49.7129 20.334 45.5996 28.3496 42.8047C29.3516 42.4531 30.3711 42.1367 31.3906 41.8379C32.5859 45.6523 34.0273 49.3965 35.6973 53.0176C34.0098 56.6914 32.5508 60.4883 31.3379 64.3555V64.3555ZM51.834 81.582C48.9336 84.2363 45.5762 86.3457 41.9199 87.7871C39.9687 88.7187 37.7188 88.8066 35.7148 88.0156C32.9199 86.3984 31.7598 80.1934 33.3418 71.8438C33.5352 70.8594 33.7461 69.875 33.9922 68.9082C37.9297 69.752 41.9023 70.332 45.9277 70.6309C48.248 73.918 50.7969 77.0645 53.5215 80.0176C52.959 80.5625 52.3965 81.0898 51.834 81.582ZM56.1406 77.3105C54.3477 75.3769 52.5547 73.2324 50.8145 70.9297C52.502 71 54.2422 71.0352 56 71.0352C57.8105 71.0352 59.5859 71 61.3437 70.9121C59.7266 73.1445 57.9863 75.2715 56.1406 77.3105V77.3105ZM79.1152 82.584C78.957 84.7285 77.9023 86.7324 76.2148 88.0859C73.4199 89.7031 67.4609 87.5937 61.0273 82.0742C60.2891 81.4414 59.5508 80.7559 58.7949 80.0527C61.4844 77.082 63.9629 73.9355 66.2129 70.6309C70.2383 70.2969 74.2461 69.6816 78.2012 68.7852C78.377 69.5059 78.5352 70.2266 78.6758 70.9297C79.5371 74.7266 79.6777 78.6816 79.1152 82.584V82.584ZM82.3145 63.6875C81.8223 63.8457 81.3301 64.0039 80.8203 64.1445C79.5898 60.3125 78.0781 56.5684 76.3379 52.9297C78.0254 49.3437 79.4492 45.6523 80.6445 41.873C81.5586 42.1367 82.4375 42.418 83.2813 42.6992C91.4727 45.5117 97.2207 49.6953 97.2207 52.8945C97.2207 56.3398 91.0859 60.7871 82.3145 63.6875ZM56 61.0508C60.4473 61.0508 64.0508 57.4473 64.0508 53C64.0508 48.5527 60.4473 44.9492 56 44.9492C51.5527 44.9492 47.9492 48.5527 47.9492 53C47.9492 57.4473 51.5527 61.0508 56 61.0508Z" fill="black"/>
<defs>
<filter id="filter0_d_1_12" x="0" y="0" width="113" height="107" filterUnits="userSpaceOnUse" color-interpolation-filters="sRGB">
<feFlood flood-opacity="0" result="BackgroundImageFix"/>
<feColorMatrix in="SourceAlpha" type="matrix" values="0 0 0 0 0 0 0 0 0 0 0 0 0 0 0 0 0 0 127 0" result="hardAlpha"/>
<feOffset dy="1"/>
<feComposite in2="hardAlpha" operator="out"/>
<feColorMatrix type="matrix" values="0 0 0 0 0 0 0 0 0 0 0 0 0 0 0 0 0 0 0.25 0"/>
<feBlend mode="normal" in2="BackgroundImageFix" result="effect1_dropShadow_1_12"/>
<feBlend mode="normal" in="SourceGraphic" in2="effect1_dropShadow_1_12" result="shape"/>
</filter>
</defs>
</svg>
